<?xml version="1.0" encoding="UTF-8" standalone="no"?>
<svg
   width="71mm"
   height="72mm"
   viewBox="12 12 71 72"
   version="1.1"
   id="svg1"
   sodipodi:docname="logo.svg"
   xml:space="preserve"
   inkscape:version="1.3 (0e150ed6c4, 2023-07-21)"
   inkscape:export-filename="logo.png"
   inkscape:export-xdpi="96"
   inkscape:export-ydpi="96"
   xmlns:inkscape="http://www.inkscape.org/namespaces/inkscape"
   xmlns:sodipodi="http://sodipodi.sourceforge.net/DTD/sodipodi-0.dtd"
   xmlns="http://www.w3.org/2000/svg"
   xmlns:svg="http://www.w3.org/2000/svg"><defs
     id="defs1" /><sodipodi:namedview
     id="namedview1"
     pagecolor="#ffffff"
     bordercolor="#000000"
     borderopacity="0.25"
     inkscape:showpageshadow="2"
     inkscape:pageopacity="0.0"
     inkscape:pagecheckerboard="0"
     inkscape:deskcolor="#d1d1d1"
     inkscape:document-units="mm"
     inkscape:zoom="1.2054151"
     inkscape:cx="126.09764"
     inkscape:cy="101.20995"
     inkscape:window-width="1280"
     inkscape:window-height="650"
     inkscape:window-x="-6"
     inkscape:window-y="-6"
     inkscape:window-maximized="1"
     inkscape:current-layer="svg1" /><title
     id="title1">OpenSCAD Model</title><path
     style="display:inline;fill:none"
     d="m 12.171002,51.505002 0.512,3.446 0.846,3.379 1.174,3.28 1.489,3.15 1.791,2.988 2.076,2.798 2.339,2.581 2.582,2.34 2.798,2.075 2.988,1.791 3.149,1.49 3.28,1.173 3.38,0.847 3.446,0.511 3.479,0.171 3.48,-0.171 3.446,-0.511 3.38,-0.847 3.28,-1.173 3.149,-1.49 2.988,-1.791 2.798,-2.075 2.582,-2.34 2.339,-2.581 2.076,-2.798 1.791,-2.988 1.489,-3.15 1.174,-3.28 0.846,-3.379 0.512,-3.446 0.17,-3.48 -0.17,-3.48 -0.512,-3.446 -0.846,-3.379 -1.174,-3.28 -1.489,-3.15 -1.791,-2.988 -2.076,-2.798 -2.339,-2.581 -2.582,-2.34 -2.798,-2.075 -2.988,-1.791 -3.149,-1.49 -3.28,-1.173 -3.38,-0.847 -3.446,-0.511 -3.48,-0.171 -3.479,0.171 -3.446,0.511 -3.38,0.847 -3.28,1.173 -3.149,1.49 -2.988,1.791 -2.798,2.075 -2.582,2.34 -2.339,2.581 -2.076,2.798 -1.791,2.988 -1.489,3.15 -1.174,3.28 -0.846,3.379 -0.512,3.446 -0.171,3.48 z"
     id="path1" /><path
     style="fill:#630063;fill-opacity:1"
     d="m 23.549169,56.017668 -1.141,-1.259 -1.011,-1.364 -0.874,-1.457 -0.726,-1.536 -0.572,-1.599 -0.413,-1.648 -0.249,-1.681 -0.084,-1.696 0.084,-1.697 0.249,-1.68 0.413,-1.648 0.572,-1.6 0.726,-1.535 0.874,-1.458 1.011,-1.364 1.141,-1.259 1.259,-1.141 1.364,-1.011 1.458,-0.874 1.535,-0.726 1.6,-0.572 1.647,-0.413 1.681,-0.249 1.697,-0.084 1.696,0.084 1.681,0.249 1.648,0.413 1.599,0.572 1.536,0.726 1.457,0.874 1.364,1.011 1.259,1.141 z"
     id="path6" /><path
     style="fill:#630063;fill-opacity:1"
     d="m 45.372002,42.161835 v 35.8329 l -17.916,-17.9169 z"
     id="path5" /><path
     style="fill:#630063;fill-opacity:1"
     d="m 49.630002,42.161835 8.981,8.9809 -5.9288,5.9282 -2e-4,-10e-5 -3.007,3.007 3.007,3.008 7e-4,-7e-4 5.9285,5.928 -8.9812,8.9816 z"
     id="path4" /><path
     style="fill:#630063;fill-opacity:1"
     d="m 61.618402,54.150235 5.9276,5.9276 -5.9279,5.9282 -5.9283,-5.9277 z"
     id="path3" /><path
     style="fill:#630063;fill-opacity:1"
     d="m 49.594835,29.384668 1.457,-0.874 1.536,-0.726 1.599,-0.572 1.648,-0.413 1.68,-0.249 1.697,-0.084 1.697,0.084 1.68,0.249 1.648,0.413 1.6,0.572 1.535,0.726 1.457,0.874 1.365,1.011 1.258,1.141 1.141,1.259 1.012,1.364 0.873,1.458 0.727,1.535 0.572,1.6 0.413,1.648 0.249,1.68 0.083,1.697 -0.083,1.696 -0.249,1.681 -0.413,1.648 -0.572,1.599 -0.727,1.536 -0.873,1.457 -1.012,1.364 -1.141,1.259 -24.48,-24.481 1.259,-1.141 z"
     id="path2" /><path
     d="m 27.531161,59.983205 17.86719,-17.8672 v 35.7344 l 2.1255,2.1255 2.1271,-2.1271 6e-4,-35.7335 8.9831,8.9831 -8.9364,8.9364 8.8834,8.8834 3.0073,-3.0073 -5.8761,-5.8761 5.9291,-5.9291 5.8761,5.8761 4.0446,-4.0447 -24.038,-24.038 -24.03884,24.0388 z"
     stroke="#000000"
     fill="#d3d3d3"
     stroke-width="0.5"
     id="path1-0"
     style="fill:#ffc700;fill-opacity:1;stroke:none" /></svg>
